HIERARCHY
ROOT Hips
{
	OFFSET -0.179506 -22.333345 2.821913
	CHANNELS 6 Xposition Yposition Zposition Zrotation Yrotation Xrotation 
	JOINT LeftUpLeg
	{
		OFFSET 6.951974 -9.140623 -0.681533
		CHANNELS 3 Zrotation Yrotation Xrotation
		JOINT LeftLeg
		{
			OFFSET 3.427654 -37.519855 -0.449580
			CHANNELS 3 Zrotation Yrotation Xrotation
			JOINT LeftFoot
			{
				OFFSET -1.359570 -39.796059 -4.369333
				CHANNELS 3 Zrotation Yrotation Xrotation
				JOINT LeftToe
				{
					OFFSET 2.635814 -5.579078 11.928840
					CHANNELS 3 Zrotation Yrotation Xrotation
					End Site
					{
						OFFSET 0.000000 0.000000 0.000000
					}
				}
			}
		}
	}
	JOINT RightUpLeg
	{
		OFFSET -6.767048 -9.052170 -0.431982
		CHANNELS 3 Zrotation Yrotation Xrotation
		JOINT RightLeg
		{
			OFFSET -3.829005 -38.256897 -0.885003
			CHANNELS 3 Zrotation Yrotation Xrotation
			JOINT RightFoot
			{
				OFFSET 1.577377 -39.841461 -4.231180
				CHANNELS 3 Zrotation Yrotation Xrotation
				JOINT RightToe
				{
					OFFSET -2.537174 -4.814398 12.334795
					CHANNELS 3 Zrotation Yrotation Xrotation
					End Site
					{
						OFFSET 0.000000 0.000000 0.000000
					}
				}
			}
		}
	}
	JOINT Spine
	{
		OFFSET -0.253288 10.896323 -2.669631
		CHANNELS 3 Zrotation Yrotation Xrotation
		JOINT Spine1
		{
			OFFSET 0.548704 13.518043 0.109247
			CHANNELS 3 Zrotation Yrotation Xrotation
			JOINT Spine2
			{
				OFFSET 0.145701 5.292222 2.542457
				CHANNELS 3 Zrotation Yrotation Xrotation
				JOINT Neck
				{
					OFFSET -0.277840 21.387037 -4.285703
					CHANNELS 3 Zrotation Yrotation Xrotation
					JOINT Head
					{
						OFFSET 0.515184 6.496960 5.134897
						CHANNELS 3 Zrotation Yrotation Xrotation
						End Site
						{
							OFFSET 0.000000 0.000000 0.000000
						}
					}
				}
				JOINT LeftShoulder
				{
					OFFSET 7.884473 12.174932 -3.408961
					CHANNELS 3 Zrotation Yrotation Xrotation
					JOINT LeftArm
					{
						OFFSET 9.097692 3.046888 -0.886815
						CHANNELS 3 Zrotation Yrotation Xrotation
						JOINT LeftForeArm
						{
							OFFSET 25.961220 -1.277207 -2.745643
							CHANNELS 3 Zrotation Yrotation Xrotation
							JOINT LeftHand
							{
								OFFSET 24.923361 0.898606 -0.117091
								CHANNELS 3 Zrotation Yrotation Xrotation
								End Site
								{
									OFFSET 0.000000 0.000000 0.000000
								}
							}
						}
					}
				}
				JOINT RightShoulder
				{
					OFFSET -8.175920 11.883285 -3.861528
					CHANNELS 3 Zrotation Yrotation Xrotation
					JOINT RightArm
					{
						OFFSET -9.601238 3.255117 -0.914307
						CHANNELS 3 Zrotation Yrotation Xrotation
						JOINT RightForeArm
						{
							OFFSET -25.374195 -1.332924 -2.140099
							CHANNELS 3 Zrotation Yrotation Xrotation
							JOINT RightHand
							{
								OFFSET -25.529810 0.777228 -0.555919
								CHANNELS 3 Zrotation Yrotation Xrotation
								End Site
								{
									OFFSET 0.000000 0.000000 0.000000
								}
							}
						}
					}
				}
			}
		}
	}
}
MOTION
Frames: 7
Frame Time: 0.033333
0.039001 -2.069755 89.783188 -118.054757 3.263083 84.880470 14.686040 7.011899 -6.921843 -6.673418 2.598855 31.132512 2.103341 13.664193 -28.876250 nan nan nan -14.195480 -10.549875 -12.054490 3.317316 -9.869523 21.132636 4.389159 -7.694190 -9.068141 nan nan nan -6.564529 1.998652 2.978344 7.557814 -6.863346 10.130459 0.927814 -1.050650 -3.736468 0.251327 -19.245879 18.100086 7.494592 -18.032250 14.316910 -13.986866 -11.837967 2.735192 -57.496160 -47.479087 31.410626 157.640853 -76.966262 -136.556851 14.573293 -13.364523 -18.330695 15.853666 4.956288 -4.876200 44.095227 10.841496 4.217708 -96.373925 63.841804 -91.371073 -13.839537 5.965079 -38.098242 
0.047646 -2.050021 89.821526 -118.100355 3.204558 84.932572 14.635046 7.028094 -6.946675 -6.685768 2.685861 31.086022 2.179750 13.609500 -28.915396 nan nan nan -14.225643 -10.519193 -12.229577 3.313563 -9.901150 21.313521 4.378344 -7.683472 -8.974158 nan nan nan -6.540441 1.912238 2.930768 7.477604 -6.869815 10.093962 0.826667 -1.072784 -3.772009 0.235033 -19.265944 18.079154 7.356167 -18.001195 14.496225 -14.100121 -11.718172 2.662130 -57.455659 -47.254450 31.433796 157.788543 -76.896877 -136.579351 14.401038 -13.336756 -18.347935 15.946907 4.923862 -4.905379 44.425456 10.974821 4.451749 -96.460580 63.772365 -91.426227 -13.761051 5.920770 -38.235430 
0.056808 -2.048748 89.845955 -118.084636 3.189745 84.992129 14.616760 7.009018 -7.041953 -6.689249 2.746072 31.141110 2.230646 13.590757 -28.916141 nan nan nan -14.235795 -10.481271 -12.337491 3.362063 -9.892530 21.453874 4.384730 -7.630150 -8.818072 nan nan nan -6.520498 1.861616 2.903182 7.435273 -6.884479 10.036582 0.769794 -1.092215 -3.785296 0.217817 -19.257898 18.087735 7.336373 -17.967661 14.534563 -14.116251 -11.678860 2.637841 -57.370159 -47.113375 31.388160 158.054724 -76.848210 -136.737783 14.422682 -13.395293 -18.484879 15.930793 4.875330 -4.915173 44.621556 11.004002 4.547605 -96.547367 63.805005 -91.440673 -13.803013 5.917537 -38.317231 
0.055935 -2.053933 89.867287 -118.049329 3.182397 85.052876 14.602315 6.989420 -7.147728 -6.678408 2.815438 31.206378 2.275884 13.574169 -28.923952 nan nan nan -14.243972 -10.424523 -12.397545 3.389906 -9.849793 21.515992 4.388269 -7.586893 -8.699050 nan nan nan -6.499483 1.829302 2.874740 7.400345 -6.899141 9.995096 0.724242 -1.107066 -3.806521 0.218078 -19.220041 18.085363 7.336012 -17.932876 14.531000 -14.101497 -11.623953 2.602668 -57.357679 -46.986517 31.398235 158.256951 -76.741668 -136.907605 14.387918 -13.424637 -18.782091 15.889357 4.816162 -4.921049 44.848335 11.020037 4.666380 -96.638461 63.779126 -91.546789 -13.798511 5.895246 -38.608480 
-0.001105 -2.114948 89.809158 -117.950069 3.839179 84.224785 15.551210 7.219132 -6.271219 -6.924148 2.407813 31.273787 2.030759 13.170813 -28.953767 nan nan nan -13.722785 -10.978986 -11.322093 3.483568 -10.238309 21.679178 4.318506 -7.552875 -9.198598 nan nan nan -7.237270 2.734256 3.611709 8.263836 -6.365755 11.300300 2.048085 -0.764713 -4.328203 2.497626 -19.336705 16.091726 6.669116 -19.970566 13.501038 -13.334559 -12.672179 3.361905 -59.055840 -48.967984 30.566656 150.614254 -75.535498 -126.570448 2.549748 -14.306135 -10.586726 15.930592 4.903811 -2.311976 40.111060 9.364453 0.795542 -97.106568 61.582667 -83.354443 -2.112057 5.938383 -25.963659 
-0.023427 -2.127830 89.803185 -117.973122 3.906834 84.112583 15.683956 7.290317 -6.114265 -6.994476 2.474552 31.266056 2.215205 13.236640 -28.956738 nan nan nan -13.635307 -10.956705 -11.154756 3.476691 -10.109693 21.589551 3.915123 -7.592958 -9.745021 nan nan nan -7.422693 2.887435 3.704704 8.398217 -6.261505 11.436919 2.246257 -0.725327 -4.366317 2.826024 -18.979893 15.653209 6.596880 -20.144936 13.273391 -12.890068 -12.694982 3.329890 -59.596938 -49.400578 30.599526 149.505022 -75.495897 -124.934449 0.880094 -14.616644 -9.600616 16.029460 4.759523 -2.291754 39.970946 9.470337 0.481810 -97.094173 61.169859 -82.310168 -0.297288 5.740627 -24.304630 
-0.070508 -2.150126 89.816208 -117.919007 3.946788 84.124090 15.727985 7.019962 -6.028903 -6.693925 3.179174 31.146172 2.062549 12.671386 -28.946160 nan nan nan -13.640587 -10.948264 -11.112275 3.146276 -10.783850 21.662674 4.241103 -6.741192 -9.532745 nan nan nan -7.411987 2.908880 3.672819 8.360412 -6.242651 11.905254 2.388124 -0.713754 -5.039070 3.256138 -18.224808 15.920111 6.475582 -20.809478 12.619702 -12.588734 -12.352592 3.236851 -60.513121 -49.826399 29.871774 146.100618 -74.630146 -119.415454 -8.110260 -16.259906 -2.392737 16.728857 4.654430 -1.750136 39.017972 9.698033 -1.244408 -94.448862 60.007964 -74.637424 9.270216 7.247707 -12.439402 
